<svg width="800" height="600" viewBox="0 0 800 600" fill="none" xmlns="http://www.w3.org/2000/svg">
  <!-- Background -->
  <rect width="800" height="600" rx="24" fill="#1a1a2e"/>

  <!-- Header Bar -->
  <rect x="24" y="24" width="752" height="48" rx="8" fill="#16162a"/>
  <circle cx="56" cy="48" r="8" fill="#39FF85"/>
  <circle cx="80" cy="48" r="8" fill="#FFD93D"/>
  <circle cx="104" cy="48" r="8" fill="#FF6B6B"/>
  <rect x="140" y="38" width="120" height="20" rx="4" fill="#2a2a4a"/>

  <!-- Sidebar -->
  <rect x="24" y="88" width="180" height="488" rx="12" fill="#16162a"/>
  <rect x="44" y="108" width="140" height="32" rx="6" fill="#39FF85" fill-opacity="0.2"/>
  <rect x="56" y="116" width="80" height="16" rx="4" fill="#39FF85"/>
  <rect x="44" y="156" width="140" height="32" rx="6" fill="#2a2a4a"/>
  <rect x="44" y="204" width="140" height="32" rx="6" fill="#2a2a4a"/>
  <rect x="44" y="252" width="140" height="32" rx="6" fill="#2a2a4a"/>

  <!-- Main Content Area -->
  <!-- Stats Cards Row -->
  <rect x="224" y="88" width="132" height="80" rx="12" fill="#16162a"/>
  <text x="244" y="120" fill="#39FF85" font-family="system-ui" font-size="24" font-weight="bold">2,847</text>
  <text x="244" y="148" fill="#6b7280" font-family="system-ui" font-size="12">Лидов за месяц</text>

  <rect x="372" y="88" width="132" height="80" rx="12" fill="#16162a"/>
  <text x="392" y="120" fill="#39FF85" font-family="system-ui" font-size="24" font-weight="bold">₸1,250</text>
  <text x="392" y="148" fill="#6b7280" font-family="system-ui" font-size="12">Стоимость лида</text>

  <rect x="520" y="88" width="132" height="80" rx="12" fill="#16162a"/>
  <text x="540" y="120" fill="#39FF85" font-family="system-ui" font-size="24" font-weight="bold">+47%</text>
  <text x="540" y="148" fill="#6b7280" font-family="system-ui" font-size="12">Конверсия</text>

  <rect x="668" y="88" width="108" height="80" rx="12" fill="#16162a"/>
  <text x="688" y="120" fill="#39FF85" font-family="system-ui" font-size="24" font-weight="bold">24/7</text>
  <text x="688" y="148" fill="#6b7280" font-family="system-ui" font-size="12">AI работает</text>

  <!-- Chart Area -->
  <rect x="224" y="184" width="552" height="240" rx="12" fill="#16162a"/>
  <text x="244" y="216" fill="#ffffff" font-family="system-ui" font-size="14" font-weight="600">Эффективность рекламы</text>

  <!-- Chart Line -->
  <path d="M260 380 Q320 350 380 360 T500 300 T620 280 T740 250" stroke="#39FF85" stroke-width="3" fill="none"/>
  <path d="M260 380 Q320 350 380 360 T500 300 T620 280 T740 250 V400 H260 Z" fill="url(#gradient)" fill-opacity="0.3"/>

  <!-- Gradient definition -->
  <defs>
    <linearGradient id="gradient" x1="0%" y1="0%" x2="0%" y2="100%">
      <stop offset="0%" stop-color="#39FF85" stop-opacity="0.5"/>
      <stop offset="100%" stop-color="#39FF85" stop-opacity="0"/>
    </linearGradient>
  </defs>

  <!-- Chart dots -->
  <circle cx="260" cy="380" r="6" fill="#39FF85"/>
  <circle cx="380" cy="360" r="6" fill="#39FF85"/>
  <circle cx="500" cy="300" r="6" fill="#39FF85"/>
  <circle cx="620" cy="280" r="6" fill="#39FF85"/>
  <circle cx="740" cy="250" r="6" fill="#39FF85"/>

  <!-- Bottom Cards -->
  <rect x="224" y="440" width="268" height="136" rx="12" fill="#16162a"/>
  <text x="244" y="472" fill="#ffffff" font-family="system-ui" font-size="14" font-weight="600">Активные кампании</text>
  <rect x="244" y="490" width="200" height="8" rx="4" fill="#2a2a4a"/>
  <rect x="244" y="490" width="160" height="8" rx="4" fill="#39FF85"/>
  <text x="244" y="528" fill="#6b7280" font-family="system-ui" font-size="12">Google Ads</text>
  <rect x="244" y="540" width="200" height="8" rx="4" fill="#2a2a4a"/>
  <rect x="244" y="540" width="140" height="8" rx="4" fill="#39FF85"/>
  <text x="244" y="564" fill="#6b7280" font-family="system-ui" font-size="12">Meta Ads</text>

  <rect x="508" y="440" width="268" height="136" rx="12" fill="#16162a"/>
  <text x="528" y="472" fill="#ffffff" font-family="system-ui" font-size="14" font-weight="600">AI Оптимизация</text>
  <circle cx="640" cy="520" r="40" stroke="#39FF85" stroke-width="6" fill="none" stroke-dasharray="200 51"/>
  <text x="620" y="528" fill="#39FF85" font-family="system-ui" font-size="18" font-weight="bold">78%</text>
</svg>